<mxfile host="app.diagrams.net" agent="Mozilla/5.0 (Windows NT 10.0; Win64; x64) AppleWebKit/537.36 (KHTML, like Gecko) Chrome/133.0.0.0 Safari/537.36 Edg/133.0.0.0" version="26.0.16">
  <diagram name="Página-1" id="pGc1JlCst-v3VzjPuyGH">
    <mxGraphModel dx="1426" dy="781" grid="1" gridSize="10" guides="1" tooltips="1" connect="1" arrows="1" fold="1" page="1" pageScale="1" pageWidth="827" pageHeight="1169" math="0" shadow="0">
      <root>
        <mxCell id="0" />
        <mxCell id="1" parent="0" />
        <mxCell id="bQ8O_WoPfu5JlHnkfQlb-1" value="Usuário" style="shape=umlActor;verticalLabelPosition=bottom;verticalAlign=top;html=1;outlineConnect=0;" vertex="1" parent="1">
          <mxGeometry x="404" y="210" width="20" height="50" as="geometry" />
        </mxCell>
        <mxCell id="bQ8O_WoPfu5JlHnkfQlb-2" value="" style="ellipse;whiteSpace=wrap;html=1;fillColor=#fff2cc;strokeColor=#d6b656;" vertex="1" parent="1">
          <mxGeometry x="700" y="245" width="120" height="80" as="geometry" />
        </mxCell>
        <mxCell id="bQ8O_WoPfu5JlHnkfQlb-3" value="Editar arquivos" style="ellipse;whiteSpace=wrap;html=1;fillColor=#fff2cc;strokeColor=#d6b656;" vertex="1" parent="1">
          <mxGeometry x="690" y="440" width="120" height="80" as="geometry" />
        </mxCell>
        <mxCell id="bQ8O_WoPfu5JlHnkfQlb-4" value="" style="ellipse;whiteSpace=wrap;html=1;fillColor=#fff2cc;strokeColor=#d6b656;" vertex="1" parent="1">
          <mxGeometry x="700" y="20" width="120" height="80" as="geometry" />
        </mxCell>
        <mxCell id="bQ8O_WoPfu5JlHnkfQlb-6" value="Gerenciar dados do Usuário" style="ellipse;whiteSpace=wrap;html=1;fillColor=#fff2cc;strokeColor=#d6b656;" vertex="1" parent="1">
          <mxGeometry x="210" y="590" width="120" height="80" as="geometry" />
        </mxCell>
        <mxCell id="bQ8O_WoPfu5JlHnkfQlb-7" value="" style="ellipse;whiteSpace=wrap;html=1;fillColor=#fff2cc;strokeColor=#d6b656;" vertex="1" parent="1">
          <mxGeometry x="700" y="120" width="120" height="80" as="geometry" />
        </mxCell>
        <mxCell id="bQ8O_WoPfu5JlHnkfQlb-8" value="" style="ellipse;whiteSpace=wrap;html=1;fillColor=#fff2cc;strokeColor=#d6b656;" vertex="1" parent="1">
          <mxGeometry x="690" y="345" width="120" height="80" as="geometry" />
        </mxCell>
        <mxCell id="bQ8O_WoPfu5JlHnkfQlb-11" value="Criar Prompts de resumo de texto" style="text;html=1;align=center;verticalAlign=middle;whiteSpace=wrap;rounded=0;" vertex="1" parent="1">
          <mxGeometry x="720" y="40" width="60" height="30" as="geometry" />
        </mxCell>
        <mxCell id="bQ8O_WoPfu5JlHnkfQlb-13" value="Criar Prompts de resumo de imagens" style="text;html=1;align=center;verticalAlign=middle;whiteSpace=wrap;rounded=0;" vertex="1" parent="1">
          <mxGeometry x="730" y="145" width="60" height="30" as="geometry" />
        </mxCell>
        <mxCell id="bQ8O_WoPfu5JlHnkfQlb-15" value="Criar Prompts de resumo de vídeos" style="text;html=1;align=center;verticalAlign=middle;whiteSpace=wrap;rounded=0;" vertex="1" parent="1">
          <mxGeometry x="720" y="270" width="60" height="30" as="geometry" />
        </mxCell>
        <mxCell id="bQ8O_WoPfu5JlHnkfQlb-16" value="Criar arquivos" style="text;html=1;align=center;verticalAlign=middle;whiteSpace=wrap;rounded=0;" vertex="1" parent="1">
          <mxGeometry x="720" y="370" width="60" height="30" as="geometry" />
        </mxCell>
        <mxCell id="bQ8O_WoPfu5JlHnkfQlb-20" value="Gerenciar ações da IA" style="ellipse;whiteSpace=wrap;html=1;fillColor=#fff2cc;strokeColor=#d6b656;" vertex="1" parent="1">
          <mxGeometry x="470" y="590" width="120" height="80" as="geometry" />
        </mxCell>
        <mxCell id="bQ8O_WoPfu5JlHnkfQlb-21" value="Criar resumo de vídeo a partir do prompt" style="ellipse;whiteSpace=wrap;html=1;fillColor=#fff2cc;strokeColor=#d6b656;" vertex="1" parent="1">
          <mxGeometry x="10" y="360" width="120" height="80" as="geometry" />
        </mxCell>
        <mxCell id="bQ8O_WoPfu5JlHnkfQlb-22" value="Criar resumo de imagens a partir do prompt" style="ellipse;whiteSpace=wrap;html=1;fillColor=#fff2cc;strokeColor=#d6b656;" vertex="1" parent="1">
          <mxGeometry x="10" y="200" width="120" height="80" as="geometry" />
        </mxCell>
        <mxCell id="bQ8O_WoPfu5JlHnkfQlb-23" value="Criar resumo de texto a partir do prompt" style="ellipse;whiteSpace=wrap;html=1;fillColor=#fff2cc;strokeColor=#d6b656;" vertex="1" parent="1">
          <mxGeometry x="10" y="20" width="120" height="80" as="geometry" />
        </mxCell>
        <mxCell id="bQ8O_WoPfu5JlHnkfQlb-28" value="Inteligencia Artificial" style="shape=umlActor;verticalLabelPosition=bottom;verticalAlign=top;html=1;outlineConnect=0;" vertex="1" parent="1">
          <mxGeometry x="399" y="340" width="30" height="60" as="geometry" />
        </mxCell>
        <mxCell id="bQ8O_WoPfu5JlHnkfQlb-34" value="" style="endArrow=classic;html=1;rounded=0;entryX=0;entryY=0;entryDx=0;entryDy=0;" edge="1" parent="1" source="bQ8O_WoPfu5JlHnkfQlb-1" target="bQ8O_WoPfu5JlHnkfQlb-3">
          <mxGeometry width="50" height="50" relative="1" as="geometry">
            <mxPoint x="390" y="350" as="sourcePoint" />
            <mxPoint x="440" y="300" as="targetPoint" />
          </mxGeometry>
        </mxCell>
        <mxCell id="bQ8O_WoPfu5JlHnkfQlb-35" value="" style="endArrow=classic;html=1;rounded=0;entryX=0.1;entryY=0.225;entryDx=0;entryDy=0;entryPerimeter=0;exitX=0.5;exitY=0.5;exitDx=0;exitDy=0;exitPerimeter=0;" edge="1" parent="1" source="bQ8O_WoPfu5JlHnkfQlb-1" target="bQ8O_WoPfu5JlHnkfQlb-8">
          <mxGeometry width="50" height="50" relative="1" as="geometry">
            <mxPoint x="390" y="350" as="sourcePoint" />
            <mxPoint x="440" y="300" as="targetPoint" />
          </mxGeometry>
        </mxCell>
        <mxCell id="bQ8O_WoPfu5JlHnkfQlb-36" value="" style="endArrow=classic;html=1;rounded=0;entryX=0.033;entryY=0.375;entryDx=0;entryDy=0;entryPerimeter=0;exitX=0.5;exitY=0.5;exitDx=0;exitDy=0;exitPerimeter=0;" edge="1" parent="1" source="bQ8O_WoPfu5JlHnkfQlb-1" target="bQ8O_WoPfu5JlHnkfQlb-2">
          <mxGeometry width="50" height="50" relative="1" as="geometry">
            <mxPoint x="390" y="350" as="sourcePoint" />
            <mxPoint x="440" y="300" as="targetPoint" />
          </mxGeometry>
        </mxCell>
        <mxCell id="bQ8O_WoPfu5JlHnkfQlb-37" value="" style="endArrow=classic;html=1;rounded=0;entryX=0;entryY=0.5;entryDx=0;entryDy=0;" edge="1" parent="1" source="bQ8O_WoPfu5JlHnkfQlb-1" target="bQ8O_WoPfu5JlHnkfQlb-7">
          <mxGeometry width="50" height="50" relative="1" as="geometry">
            <mxPoint x="390" y="350" as="sourcePoint" />
            <mxPoint x="440" y="300" as="targetPoint" />
          </mxGeometry>
        </mxCell>
        <mxCell id="bQ8O_WoPfu5JlHnkfQlb-38" value="" style="endArrow=classic;html=1;rounded=0;entryX=0.017;entryY=0.688;entryDx=0;entryDy=0;entryPerimeter=0;exitX=0.5;exitY=0;exitDx=0;exitDy=0;exitPerimeter=0;" edge="1" parent="1" source="bQ8O_WoPfu5JlHnkfQlb-1" target="bQ8O_WoPfu5JlHnkfQlb-4">
          <mxGeometry width="50" height="50" relative="1" as="geometry">
            <mxPoint x="390" y="350" as="sourcePoint" />
            <mxPoint x="440" y="300" as="targetPoint" />
          </mxGeometry>
        </mxCell>
        <mxCell id="bQ8O_WoPfu5JlHnkfQlb-39" value="" style="endArrow=classic;html=1;rounded=0;entryX=0.783;entryY=0.888;entryDx=0;entryDy=0;entryPerimeter=0;exitX=0.25;exitY=0.1;exitDx=0;exitDy=0;exitPerimeter=0;" edge="1" parent="1" source="bQ8O_WoPfu5JlHnkfQlb-28" target="bQ8O_WoPfu5JlHnkfQlb-23">
          <mxGeometry width="50" height="50" relative="1" as="geometry">
            <mxPoint x="390" y="350" as="sourcePoint" />
            <mxPoint x="440" y="300" as="targetPoint" />
          </mxGeometry>
        </mxCell>
        <mxCell id="bQ8O_WoPfu5JlHnkfQlb-40" value="" style="endArrow=classic;html=1;rounded=0;entryX=1;entryY=0.5;entryDx=0;entryDy=0;exitX=0.5;exitY=0.5;exitDx=0;exitDy=0;exitPerimeter=0;" edge="1" parent="1" source="bQ8O_WoPfu5JlHnkfQlb-28" target="bQ8O_WoPfu5JlHnkfQlb-22">
          <mxGeometry width="50" height="50" relative="1" as="geometry">
            <mxPoint x="280" y="375" as="sourcePoint" />
            <mxPoint x="330" y="325" as="targetPoint" />
          </mxGeometry>
        </mxCell>
        <mxCell id="bQ8O_WoPfu5JlHnkfQlb-41" value="" style="endArrow=classic;html=1;rounded=0;entryX=1;entryY=0.5;entryDx=0;entryDy=0;" edge="1" parent="1" source="bQ8O_WoPfu5JlHnkfQlb-28" target="bQ8O_WoPfu5JlHnkfQlb-21">
          <mxGeometry width="50" height="50" relative="1" as="geometry">
            <mxPoint x="245" y="420" as="sourcePoint" />
            <mxPoint x="295" y="370" as="targetPoint" />
          </mxGeometry>
        </mxCell>
        <mxCell id="bQ8O_WoPfu5JlHnkfQlb-42" value="Sistema" style="shape=umlActor;verticalLabelPosition=bottom;verticalAlign=top;html=1;outlineConnect=0;" vertex="1" parent="1">
          <mxGeometry x="399" y="450" width="30" height="60" as="geometry" />
        </mxCell>
        <mxCell id="bQ8O_WoPfu5JlHnkfQlb-43" value="" style="endArrow=classic;html=1;rounded=0;exitX=1;exitY=1;exitDx=0;exitDy=0;exitPerimeter=0;" edge="1" parent="1" source="bQ8O_WoPfu5JlHnkfQlb-42" target="bQ8O_WoPfu5JlHnkfQlb-20">
          <mxGeometry width="50" height="50" relative="1" as="geometry">
            <mxPoint x="420" y="520" as="sourcePoint" />
            <mxPoint x="470" y="470" as="targetPoint" />
          </mxGeometry>
        </mxCell>
        <mxCell id="bQ8O_WoPfu5JlHnkfQlb-44" value="" style="endArrow=classic;html=1;rounded=0;entryX=0.75;entryY=0.088;entryDx=0;entryDy=0;entryPerimeter=0;exitX=0;exitY=1;exitDx=0;exitDy=0;exitPerimeter=0;" edge="1" parent="1" source="bQ8O_WoPfu5JlHnkfQlb-42" target="bQ8O_WoPfu5JlHnkfQlb-6">
          <mxGeometry width="50" height="50" relative="1" as="geometry">
            <mxPoint x="280" y="530" as="sourcePoint" />
            <mxPoint x="330" y="480" as="targetPoint" />
          </mxGeometry>
        </mxCell>
        <mxCell id="bQ8O_WoPfu5JlHnkfQlb-45" value="" style="ellipse;whiteSpace=wrap;html=1;fillColor=#fff2cc;strokeColor=#d6b656;" vertex="1" parent="1">
          <mxGeometry x="354" width="120" height="80" as="geometry" />
        </mxCell>
      </root>
    </mxGraphModel>
  </diagram>
</mxfile>
